<svg width="54" height="54" viewBox="0 0 54 54" fill="none" xmlns="http://www.w3.org/2000/svg">
<circle cx="27" cy="27" r="27" fill="#B9E937"/>
<path fill-rule="evenodd" clip-rule="evenodd" d="M16.3653 39.7381C16.6324 39.3746 17.1508 39.2895 17.52 39.5448C17.8892 39.8078 17.9756 40.3182 17.7164 40.6818L14.0639 45.7169C13.7968 46.0805 13.2784 46.1655 12.9092 45.9103C12.54 45.6473 12.4536 45.1368 12.7128 44.7733L16.3653 39.7381ZM21.7617 38.9956C15.8626 36.0642 13.8989 28.175 17.3865 21.3764C20.8741 14.5777 28.4776 11.4452 34.3845 14.3766C40.2835 17.308 42.2472 25.1972 38.7597 31.9959C35.2721 38.7945 27.6607 41.9347 21.7617 38.9956ZM13.3883 36.3504C13.7418 36.0642 14.2602 36.1106 14.5509 36.4587C14.8415 36.8068 14.7944 37.3172 14.4409 37.6034L9.88505 41.2928C9.53158 41.579 9.01315 41.5326 8.72252 41.1845C8.43189 40.8364 8.47902 40.326 8.83249 40.0398L13.3883 36.3504ZM11.401 32.3207C11.8174 32.1351 12.3044 32.313 12.4929 32.7229C12.6814 33.1329 12.5007 33.6124 12.0844 33.798L7.26151 35.9637C6.8452 36.1493 6.3582 35.9714 6.16968 35.5615C5.98116 35.1516 6.16182 34.672 6.57813 34.4864L11.401 32.3207ZM10.5449 27.9198C10.9926 27.8424 11.4246 28.1441 11.4953 28.585C11.5738 29.0258 11.2675 29.4512 10.8198 29.5208L5.46274 30.4026C5.01501 30.4799 4.58299 30.1783 4.51229 29.7374C4.43375 29.2965 4.74009 28.8711 5.18782 28.8015L10.5449 27.9198ZM10.8748 23.4492C11.3303 23.4956 11.6603 23.8901 11.621 24.3387C11.5738 24.7873 11.1733 25.1122 10.7177 25.0735L6.05185 24.6326C5.59627 24.5862 5.26637 24.1917 5.30564 23.7431C5.35277 23.2945 5.75337 22.9697 6.20895 23.0084L10.8748 23.4492ZM12.3672 19.2184C12.7992 19.3731 13.0113 19.8449 12.8542 20.2703C12.6971 20.6957 12.218 20.9046 11.7859 20.7499L8.87962 19.6748C8.85605 19.667 8.84034 19.6593 8.81678 19.6516L7.06514 19.0096C6.64097 18.8549 6.42103 18.3831 6.57813 17.9654C6.73523 17.5478 7.21438 17.3312 7.63854 17.4859L9.39019 18.1279C9.41375 18.1356 9.43732 18.1433 9.46088 18.1511L12.3672 19.2184ZM14.9122 15.5059C15.2814 15.7688 15.3678 16.2793 15.1007 16.6428C14.8336 17.0064 14.3152 17.0914 13.946 16.8362L10.0029 14.0595C9.63369 13.7965 9.54729 13.2861 9.81435 12.9225C10.0814 12.559 10.5998 12.4739 10.969 12.7292L14.9122 15.5059ZM18.3526 12.5745C18.6433 12.9225 18.5961 13.433 18.2427 13.7192C17.8892 14.0054 17.3708 13.959 17.0801 13.6109L15.5327 11.7624C15.2421 11.4143 15.2892 10.9038 15.6427 10.6176C15.9962 10.3315 16.5146 10.3779 16.8052 10.7259L18.3526 12.5745ZM22.445 10.6176C22.6335 11.0276 22.4529 11.5071 22.0366 11.6927C21.6203 11.8784 21.1333 11.7005 20.9447 11.2905L18.6825 6.38685C18.494 5.97692 18.6747 5.49738 19.091 5.31176C19.5073 5.12613 19.9943 5.30402 20.1828 5.71395L22.445 10.6176ZM26.9145 9.77458C26.993 10.2154 26.6867 10.6408 26.2389 10.7105C25.7912 10.7878 25.3592 10.4862 25.2885 10.0453L24.7544 6.90507C24.6758 6.4642 24.9822 6.0388 25.4299 5.96919C25.8776 5.89184 26.3096 6.19349 26.3803 6.63436L26.9145 9.77458ZM31.4546 10.0994C31.4075 10.548 31.0069 10.8729 30.5513 10.8342C30.0957 10.7878 29.7658 10.3933 29.8051 9.94474L30.3785 4.1129C30.4256 3.6643 30.8262 3.33945 31.2818 3.37812C31.7374 3.42453 32.0673 3.81899 32.028 4.26759L31.4546 10.0994ZM35.7591 11.569C35.602 11.9944 35.1228 12.2032 34.6908 12.0485C34.2588 11.8938 34.0467 11.422 34.2038 10.9966L36.2304 5.65981C36.3875 5.23441 36.8666 5.02558 37.2986 5.18027C37.7307 5.33496 37.9428 5.80676 37.7857 6.23216L35.7591 11.569ZM39.5216 14.0827C39.2545 14.4462 38.7361 14.5313 38.3669 14.2761C37.9977 14.0131 37.9113 13.5026 38.1705 13.1391L41.6346 8.35916C41.9016 7.99564 42.42 7.91056 42.7892 8.1658C43.1584 8.42877 43.2448 8.93925 42.9777 9.30277L39.5216 14.0827ZM42.4986 17.4627C42.1451 17.7489 41.6267 17.7025 41.3361 17.3544C41.0454 17.0064 41.0926 16.4959 41.446 16.2097L45.2242 13.1468C45.5777 12.8607 46.0961 12.9071 46.3868 13.2551C46.6774 13.6032 46.6303 14.1136 46.2768 14.3998L42.4986 17.4627ZM44.4859 21.5001C44.0696 21.6858 43.5826 21.5079 43.3941 21.0979C43.2055 20.688 43.3862 20.2085 43.8025 20.0228L47.7142 18.2671C48.1306 18.0815 48.6176 18.2594 48.8061 18.6693C48.9946 19.0792 48.8139 19.5588 48.3976 19.7444L44.4859 21.5001ZM45.3421 25.9011C44.8943 25.9784 44.4623 25.6768 44.3916 25.2359C44.3131 24.795 44.6194 24.3696 45.0671 24.3L49.6623 23.542C50.11 23.4647 50.542 23.7663 50.6127 24.2072C50.6913 24.6481 50.3849 25.0735 49.9372 25.1431L45.3421 25.9011ZM45.02 30.3639C44.5644 30.3175 44.2345 29.923 44.2738 29.4744C44.3209 29.0258 44.7215 28.701 45.1771 28.7396L49.026 29.1032C49.4816 29.1496 49.8115 29.544 49.7722 29.9926C49.7251 30.4412 49.3245 30.7661 48.8689 30.7274L45.02 30.3639ZM43.5276 34.6024C43.0956 34.4477 42.8835 33.9759 43.0406 33.5505C43.1977 33.1251 43.6768 32.9163 44.1088 33.071L49.5916 35.0897C50.0236 35.2444 50.2357 35.7162 50.0786 36.1416C49.9215 36.567 49.4423 36.7758 49.0103 36.6211L43.5276 34.6024ZM40.9747 38.3073C40.6056 38.0443 40.5192 37.5338 40.7784 37.1703C41.0454 36.8068 41.5639 36.7217 41.933 36.9769L44.5958 38.8487C44.965 39.1116 45.0514 39.6221 44.7922 39.9857C44.5252 40.3492 44.0067 40.4343 43.6376 40.1713L40.9747 38.3073ZM37.5343 41.2464C37.2437 40.8983 37.2908 40.3878 37.6443 40.1017C37.9977 39.8155 38.5162 39.8619 38.8068 40.21L41.4382 43.3579C41.7288 43.706 41.6817 44.2164 41.3282 44.5026C40.9747 44.7888 40.4563 44.7424 40.1657 44.3943L37.5343 41.2464ZM33.4419 43.1955C33.2534 42.7855 33.434 42.306 33.8503 42.1204C34.2667 41.9347 34.7537 42.1126 34.9422 42.5226L37.5579 48.192C37.7464 48.6019 37.5657 49.0815 37.1494 49.2671C36.7331 49.4527 36.2461 49.2748 36.0576 48.8649L33.4419 43.1955ZM28.9725 44.0463C28.8939 43.6054 29.2002 43.18 29.648 43.1104C30.0957 43.0331 30.5277 43.3347 30.5984 43.7756L31.596 49.677C31.6745 50.1179 31.3682 50.5433 30.9205 50.6129C30.4727 50.6902 30.0407 50.3886 29.97 49.9477L28.9725 44.0463ZM24.4323 43.7214C24.4795 43.2728 24.88 42.948 25.3356 42.9866C25.7912 43.0331 26.1211 43.4275 26.0818 43.8761L25.5242 49.5301C25.477 49.9787 25.0764 50.3035 24.6208 50.2648C24.1653 50.2184 23.8354 49.824 23.8746 49.3754L24.4323 43.7214ZM20.1357 42.2519C20.2928 41.8265 20.7719 41.6176 21.204 41.7723C21.636 41.927 21.8481 42.3988 21.691 42.8242L19.6016 48.3235C19.4445 48.7489 18.9653 48.9577 18.5333 48.803C18.1013 48.6483 17.8892 48.1765 18.0463 47.7511L20.1357 42.2519Z" fill="#6A8328"/>
<path d="M20.1687 22.0872H23.3438V26.8168L26.8759 22.0872H28.4634L25.8596 25.5918L29.2709 30.2555H25.6948L23.8711 27.6902L23.3438 28.4153V30.25H20.1687V22.0872ZM30.1691 28.8437C30.3193 28.9243 30.4639 28.9976 30.6031 29.0635C30.7422 29.1294 30.8814 29.1862 31.0206 29.2338C31.1597 29.2777 31.2989 29.3125 31.438 29.3381C31.5809 29.3638 31.7292 29.3766 31.883 29.3766C32.1247 29.3766 32.2986 29.3473 32.4048 29.2887C32.511 29.2301 32.5641 29.1532 32.5641 29.058C32.5641 28.9994 32.5458 28.95 32.5092 28.9097C32.4762 28.8694 32.4286 28.8346 32.3664 28.8053C32.3041 28.7723 32.2309 28.743 32.1467 28.7174C32.0624 28.6881 31.969 28.6588 31.8665 28.6295L31.5534 28.5361C31.2458 28.4446 30.9803 28.3384 30.7569 28.2175C30.5335 28.093 30.3504 27.9539 30.2076 27.8C30.0647 27.6462 29.9585 27.4814 29.889 27.3057C29.8194 27.1262 29.7846 26.9358 29.7846 26.7344C29.7846 26.4744 29.8432 26.2235 29.9604 25.9818C30.0776 25.7364 30.2588 25.5186 30.5042 25.3281C30.7496 25.1377 31.0627 24.9857 31.4435 24.8722C31.8281 24.7587 32.284 24.7019 32.8113 24.7019C33.0091 24.7019 33.2142 24.7147 33.4266 24.7404C33.6426 24.7623 33.8514 24.7916 34.0528 24.8282C34.2542 24.8649 34.4428 24.907 34.6186 24.9546C34.7944 24.9985 34.9427 25.0443 35.0635 25.0919L34.5801 25.9763C34.4996 25.9324 34.4043 25.8939 34.2945 25.861C34.1883 25.8243 34.0784 25.7932 33.9649 25.7676C33.8514 25.7383 33.7415 25.7163 33.6353 25.7017C33.5328 25.687 33.4449 25.6797 33.3716 25.6797C33.1592 25.6797 33.0073 25.709 32.9157 25.7676C32.8241 25.8262 32.7784 25.8976 32.7784 25.9818C32.7784 26.0148 32.7875 26.0496 32.8058 26.0862C32.8241 26.1228 32.8608 26.1613 32.9157 26.2015C32.9706 26.2418 33.0475 26.2839 33.1464 26.3279C33.2453 26.3718 33.3753 26.4176 33.5364 26.4652L33.844 26.5586C34.1846 26.6611 34.4666 26.7765 34.69 26.9047C34.917 27.0328 35.0983 27.172 35.2338 27.3221C35.373 27.4686 35.47 27.6243 35.525 27.7891C35.5835 27.9539 35.6128 28.1223 35.6128 28.2944C35.6128 28.5581 35.5488 28.8145 35.4206 29.0635C35.2924 29.3125 35.0873 29.5322 34.8053 29.7227C34.527 29.9131 34.1663 30.0669 33.7232 30.1841C33.2801 30.2976 32.7436 30.3544 32.1137 30.3544C31.8427 30.3544 31.5937 30.3434 31.3666 30.3214C31.1396 30.2994 30.9253 30.2665 30.7239 30.2225C30.5225 30.1786 30.3284 30.1255 30.1417 30.0632C29.9585 29.9973 29.7773 29.9241 29.5978 29.8435L30.1691 28.8437Z" fill="white"/>
</svg>
