<svg width="22" height="22" viewBox="0 0 22 22" fill="none" xmlns="http://www.w3.org/2000/svg">
<path fill-rule="evenodd" clip-rule="evenodd" d="M11 22C17.0751 22 22 17.0751 22 11C22 4.92487 17.0751 0 11 0C4.92487 0 0 4.92487 0 11C0 17.0751 4.92487 22 11 22ZM16.2777 7.72217C16.4925 7.50738 16.4925 7.15914 16.2777 6.94435C16.0629 6.72956 15.7147 6.72956 15.4999 6.94435L9.16657 13.2777L6.49992 10.611C6.28514 10.3962 5.93689 10.3962 5.72211 10.611C5.50732 10.8258 5.50732 11.174 5.72211 11.3888L8.77766 14.4444C8.88081 14.5475 9.0207 14.6055 9.16657 14.6055C9.31244 14.6055 9.45233 14.5475 9.55548 14.4444L16.2777 7.72217Z" fill="#B9E937"/>
</svg>
