<svg width="24" height="21" viewBox="0 0 24 21" fill="none" xmlns="http://www.w3.org/2000/svg">
<path d="M22.1494 1.85062C21.5629 1.26392 20.8667 0.798509 20.1003 0.480973C19.334 0.163437 18.5126 0 17.6831 0C16.8535 0 16.0321 0.163437 15.2658 0.480973C14.4994 0.798509 13.8032 1.26392 13.2167 1.85062L11.9997 3.06767L10.7826 1.85062C9.59811 0.666083 7.99152 0.000613989 6.31633 0.000614002C4.64114 0.000614014 3.03455 0.666083 1.85001 1.85062C0.665469 3.03517 1.24812e-08 4.64175 0 6.31694C-1.24812e-08 7.99214 0.665469 9.59872 1.85001 10.7833L3.06705 12.0003L11.9997 20.9329L20.9323 12.0003L22.1494 10.7833C22.7361 10.1968 23.2015 9.50056 23.519 8.73422C23.8366 7.96787 24 7.14647 24 6.31694C24 5.48742 23.8366 4.66602 23.519 3.89967C23.2015 3.13333 22.7361 2.43705 22.1494 1.85062Z" fill="#FFCDD2"/>
</svg>
