<svg width="23" height="23" viewBox="0 0 23 23" fill="none" xmlns="http://www.w3.org/2000/svg">
<path d="M11.3886 0.666504C6.79496 0.666504 5.45149 0.671243 5.19035 0.692906C4.24765 0.771267 3.66105 0.919695 3.02198 1.23788C2.52948 1.48243 2.14106 1.76592 1.75772 2.16331C1.05958 2.88802 0.63647 3.7796 0.483303 4.83941C0.408835 5.35392 0.387172 5.45885 0.382771 8.08689C0.381079 8.9629 0.382771 10.1158 0.382771 11.6622C0.382771 16.2521 0.387849 17.5942 0.40985 17.8549C0.486011 18.7722 0.629869 19.3493 0.93451 19.9806C1.51671 21.189 2.62865 22.0961 3.93861 22.4346C4.39219 22.5514 4.89315 22.6157 5.53628 22.6462C5.80877 22.658 8.58608 22.6665 11.3651 22.6665C14.1441 22.6665 16.9231 22.6631 17.1888 22.6496C17.9335 22.6145 18.3659 22.5565 18.844 22.4329C20.1624 22.0928 21.2541 21.1992 21.8481 19.9738C22.1468 19.3578 22.2983 18.7586 22.3669 17.8892C22.3818 17.6997 22.388 14.6775 22.388 11.6593C22.388 8.64066 22.3812 5.62403 22.3664 5.43448C22.297 4.55102 22.1455 3.95697 21.8371 3.32907C21.5841 2.81507 21.3032 2.43122 20.8953 2.03874C20.1673 1.34348 19.2771 0.920372 18.2163 0.767374C17.7023 0.693075 17.5999 0.671074 14.9698 0.666504H11.3886Z" fill="url(#paint0_radial_1_427)"/>
<path d="M11.3886 0.666504C6.79496 0.666504 5.45149 0.671243 5.19035 0.692906C4.24765 0.771267 3.66105 0.919695 3.02198 1.23788C2.52948 1.48243 2.14106 1.76592 1.75772 2.16331C1.05958 2.88802 0.63647 3.7796 0.483303 4.83941C0.408835 5.35392 0.387172 5.45885 0.382771 8.08689C0.381079 8.9629 0.382771 10.1158 0.382771 11.6622C0.382771 16.2521 0.387849 17.5942 0.40985 17.8549C0.486011 18.7722 0.629869 19.3493 0.93451 19.9806C1.51671 21.189 2.62865 22.0961 3.93861 22.4346C4.39219 22.5514 4.89315 22.6157 5.53628 22.6462C5.80877 22.658 8.58608 22.6665 11.3651 22.6665C14.1441 22.6665 16.9231 22.6631 17.1888 22.6496C17.9335 22.6145 18.3659 22.5565 18.844 22.4329C20.1624 22.0928 21.2541 21.1992 21.8481 19.9738C22.1468 19.3578 22.2983 18.7586 22.3669 17.8892C22.3818 17.6997 22.388 14.6775 22.388 11.6593C22.388 8.64066 22.3812 5.62403 22.3664 5.43448C22.297 4.55102 22.1455 3.95697 21.8371 3.32907C21.5841 2.81507 21.3032 2.43122 20.8953 2.03874C20.1673 1.34348 19.2771 0.920372 18.2163 0.767374C17.7023 0.693075 17.5999 0.671074 14.9698 0.666504H11.3886Z" fill="url(#paint1_radial_1_427)"/>
<path d="M11.3835 3.5437C9.17726 3.5437 8.90037 3.55335 8.03384 3.59278C7.16899 3.63239 6.57867 3.7693 6.06213 3.9702C5.52782 4.17769 5.07459 4.45526 4.62304 4.90697C4.17116 5.35852 3.89359 5.81175 3.68542 6.34589C3.48402 6.8626 3.34693 7.45309 3.30801 8.3176C3.26925 9.18413 3.25909 9.46119 3.25909 11.6675C3.25909 13.8737 3.26891 14.1498 3.30818 15.0163C3.34795 15.8812 3.48487 16.4715 3.68559 16.988C3.89326 17.5223 4.17082 17.9756 4.62253 18.4271C5.07391 18.879 5.52715 19.1572 6.06112 19.3647C6.57799 19.5656 7.16849 19.7025 8.03316 19.7421C8.89969 19.7816 9.17641 19.7912 11.3825 19.7912C13.589 19.7912 13.865 19.7816 14.7315 19.7421C15.5964 19.7025 16.1874 19.5656 16.7043 19.3647C17.2384 19.1572 17.691 18.879 18.1423 18.4271C18.5942 17.9756 18.8718 17.5223 19.08 16.9882C19.2797 16.4715 19.4168 15.881 19.4574 15.0165C19.4963 14.15 19.5065 13.8737 19.5065 11.6675C19.5065 9.46119 19.4963 9.1843 19.4574 8.31777C19.4168 7.45292 19.2797 6.8626 19.08 6.34606C18.8718 5.81175 18.5942 5.35852 18.1423 4.90697C17.6905 4.45509 17.2386 4.17752 16.7038 3.9702C16.1859 3.7693 15.5952 3.63239 14.7304 3.59278C13.8638 3.55335 13.588 3.5437 11.381 3.5437H11.3835ZM10.6548 5.00767C10.8711 5.00733 11.1124 5.00767 11.3835 5.00767C13.5526 5.00767 13.8097 5.01546 14.6662 5.05438C15.4583 5.0906 15.8882 5.22295 16.1745 5.33414C16.5536 5.48139 16.8239 5.6574 17.1081 5.94173C17.3924 6.22607 17.5684 6.49686 17.716 6.87597C17.8272 7.16199 17.9597 7.59187 17.9958 8.38394C18.0347 9.24032 18.0432 9.49757 18.0432 11.6656C18.0432 13.8336 18.0347 14.0909 17.9958 14.9473C17.9596 15.7393 17.8272 16.1692 17.716 16.4552C17.5688 16.8343 17.3924 17.1043 17.1081 17.3885C16.8237 17.6728 16.5538 17.8488 16.1745 17.996C15.8885 18.1077 15.4583 18.2398 14.6662 18.276C13.8098 18.3149 13.5526 18.3234 11.3835 18.3234C9.21432 18.3234 8.95724 18.3149 8.10086 18.276C7.30879 18.2394 6.87891 18.1071 6.59238 17.9959C6.21327 17.8486 5.94247 17.6726 5.65814 17.3883C5.37381 17.104 5.1978 16.8338 5.05021 16.4546C4.93902 16.1685 4.8065 15.7387 4.77045 14.9466C4.73153 14.0902 4.72374 13.833 4.72374 11.6636C4.72374 9.49419 4.73153 9.23829 4.77045 8.38191C4.80667 7.58984 4.93902 7.15996 5.05021 6.8736C5.19746 6.49449 5.37381 6.2237 5.65814 5.93937C5.94247 5.65503 6.21327 5.47902 6.59238 5.33144C6.87874 5.21974 7.30879 5.08772 8.10086 5.05134C8.85027 5.01749 9.1407 5.00733 10.6548 5.00564V5.00767ZM15.7199 6.35655C15.1817 6.35655 14.7451 6.7927 14.7451 7.33107C14.7451 7.86927 15.1817 8.30592 15.7199 8.30592C16.2581 8.30592 16.6948 7.86927 16.6948 7.33107C16.6948 6.79287 16.2581 6.35622 15.7199 6.35622V6.35655ZM11.3835 7.49557C9.0796 7.49557 7.21164 9.36353 7.21164 11.6675C7.21164 13.9714 9.0796 15.8385 11.3835 15.8385C13.6875 15.8385 15.5547 13.9714 15.5547 11.6675C15.5547 9.36353 13.6875 7.49557 11.3835 7.49557ZM11.3835 8.95954C12.879 8.95954 14.0915 10.1718 14.0915 11.6675C14.0915 13.1629 12.879 14.3754 11.3835 14.3754C9.88792 14.3754 8.67561 13.1629 8.67561 11.6675C8.67561 10.1718 9.88792 8.95954 11.3835 8.95954Z" fill="white"/>
<defs>
<radialGradient id="paint0_radial_1_427" cx="0" cy="0" r="1" gradientUnits="userSpaceOnUse" gradientTransform="translate(6.22739 24.361) rotate(-90) scale(21.8036 20.2846)">
<stop stop-color="#FFDD55"/>
<stop offset="0.1" stop-color="#FFDD55"/>
<stop offset="0.5" stop-color="#FF543E"/>
<stop offset="1" stop-color="#C837AB"/>
</radialGradient>
<radialGradient id="paint1_radial_1_427" cx="0" cy="0" r="1" gradientUnits="userSpaceOnUse" gradientTransform="translate(-3.3041 2.25135) rotate(78.6776) scale(9.74641 40.1852)">
<stop stop-color="#3771C8"/>
<stop offset="0.128" stop-color="#3771C8"/>
<stop offset="1" stop-color="#6600FF" stop-opacity="0"/>
</radialGradient>
</defs>
</svg>
