<svg width="23" height="23" viewBox="0 0 23 23" fill="none" xmlns="http://www.w3.org/2000/svg">
<g clip-path="url(#clip0_1_423)">
<path fill-rule="evenodd" clip-rule="evenodd" d="M5.27093 0.666504H17.3906C18.7133 0.670301 19.9806 1.1974 20.9159 2.13265C21.8511 3.0679 22.3782 4.33528 22.382 5.65792V17.6769C22.3778 18.9992 21.8505 20.2661 20.9153 21.201C19.9801 22.1359 18.7129 22.6627 17.3906 22.6665H5.27093C3.9486 22.6627 2.68149 22.1359 1.74629 21.201C0.81109 20.2661 0.283781 18.9992 0.27951 17.6769V5.65792C0.283307 4.33528 0.810406 3.0679 1.74566 2.13265C2.68091 1.1974 3.94829 0.670301 5.27093 0.666504Z" fill="#1CA1F1"/>
<path fill-rule="evenodd" clip-rule="evenodd" d="M18.7253 7.08073C18.1723 7.32666 17.5852 7.48738 16.9841 7.55739C17.6163 7.1783 18.0903 6.58361 18.3187 5.88279C17.7229 6.23576 17.0715 6.48512 16.3923 6.62026C15.9763 6.17701 15.4367 5.86896 14.8434 5.73603C14.2502 5.6031 13.6307 5.65142 13.0653 5.87472C12.4999 6.09802 12.0146 6.48602 11.6723 6.98841C11.3299 7.49081 11.1464 8.08444 11.1455 8.69237C11.1456 8.92476 11.1716 9.15641 11.2228 9.38308C10.0169 9.32244 8.8371 9.00876 7.76025 8.46244C6.68339 7.9161 5.73352 7.14934 4.97233 6.21195C4.70243 6.67496 4.56029 7.20133 4.56043 7.73726C4.5608 8.23558 4.68411 8.72612 4.91943 9.16538C5.15475 9.60464 5.49481 9.97906 5.90946 10.2554C5.42788 10.239 4.95701 10.1089 4.53525 9.87592V9.91549C4.53308 10.6174 4.77447 11.2984 5.21827 11.8422C5.66207 12.3861 6.28078 12.7591 6.9689 12.8978C6.70796 12.9686 6.43885 13.0049 6.16847 13.0057C5.97651 13.0045 5.78506 12.9858 5.59648 12.9499C5.7907 13.5522 6.16804 14.0789 6.67589 14.4564C7.18373 14.834 7.79675 15.0437 8.42945 15.0562C7.15608 16.0542 5.53914 16.5069 3.93268 16.3153C5.31985 17.2075 6.93482 17.6809 8.58414 17.6787C14.1601 17.6787 17.2179 13.056 17.2179 9.04492C17.2179 8.91181 17.2179 8.78231 17.2089 8.651C17.8033 8.22402 18.3158 7.69329 18.7217 7.08433L18.7253 7.08073Z" fill="white"/>
</g>
<defs>
<clipPath id="clip0_1_423">
<rect width="22.1025" height="22" fill="white" transform="translate(0.27951 0.666504)"/>
</clipPath>
</defs>
</svg>
