<svg width="43" height="43" viewBox="0 0 43 43" fill="none" xmlns="http://www.w3.org/2000/svg">
<path id="Vector" d="M32.0161 2.71297C32.5592 2.16989 33.2039 1.7391 33.9135 1.44519C34.623 1.15127 35.3835 1 36.1516 1C36.9196 1 37.6801 1.15127 38.3897 1.44519C39.0992 1.7391 39.744 2.16989 40.287 2.71297C40.8301 3.25605 41.2609 3.90078 41.5548 4.61034C41.8487 5.31991 42 6.08042 42 6.84845C42 7.61648 41.8487 8.37699 41.5548 9.08655C41.2609 9.79612 40.8301 10.4408 40.287 10.9839L12.3726 38.8984L1 42L4.10161 30.6274L32.0161 2.71297Z" stroke="#181818" stroke-width="1.5" stroke-linecap="round" stroke-linejoin="round"/>
</svg>
