<svg width="18" height="12" viewBox="0 0 18 12" fill="none" xmlns="http://www.w3.org/2000/svg">
<path id="Vector" d="M17.7938 5.49593C17.7936 5.49568 17.7934 5.49538 17.7931 5.49512L14.1192 1.02637C13.8439 0.691601 13.3987 0.692847 13.1248 1.02929C12.8508 1.36569 12.8519 1.90981 13.1271 2.24462L15.5938 5.24487H0.703125C0.314789 5.24487 0 5.62961 0 6.10424C0 6.57887 0.314789 6.96362 0.703125 6.96362H15.5938L13.1272 9.96387C12.8519 10.2987 12.8509 10.8428 13.1248 11.1792C13.3988 11.5157 13.844 11.5168 14.1192 11.1821L17.7932 6.71337C17.7934 6.71311 17.7936 6.71281 17.7938 6.71255C18.0692 6.37662 18.0683 5.83075 17.7938 5.49593Z" fill="white"/>
</svg>
