<svg width="47" height="42" viewBox="0 0 47 42" fill="none" xmlns="http://www.w3.org/2000/svg">
<g id="Group 2751">
<path id="Vector" d="M35.75 16.75L38.84 23.01L45.75 24.02L40.75 28.89L41.93 35.77L35.75 32.52L29.57 35.77L30.75 28.89L25.75 24.02L32.66 23.01L35.75 16.75Z" stroke="#181818" stroke-width="2" stroke-linecap="round" stroke-linejoin="round"/>
<path id="Subtract" fill-rule="evenodd" clip-rule="evenodd" d="M33.9057 0C32.2499 0 30.6105 0.332506 29.0816 0.97815C27.5527 1.62378 26.1645 2.56969 24.9959 3.76113L23.2494 5.54104L21.5028 3.76101C19.1423 1.35533 15.9377 0.00117326 12.5931 0.00117326C9.24858 0.00117332 6.04397 1.35533 3.68344 3.76101C1.32339 6.1662 0 9.42537 0 12.8208C0 16.2163 1.32339 19.4754 3.68344 21.8806L5.96539 24.2062L22.7141 41.2753C22.8551 41.419 23.048 41.5 23.2494 41.5C23.4508 41.5 23.6437 41.419 23.7848 41.2753L29.6512 35.2966L30.0963 32.7013L23.2494 39.6791L7.03605 23.1557L4.7541 20.8301C2.67212 18.7083 1.5 15.8275 1.5 12.8208C1.5 9.81412 2.67212 6.93337 4.7541 4.81157C6.8356 2.69025 9.65567 1.50117 12.5931 1.50117C15.5306 1.50117 18.3506 2.69025 20.4321 4.81157L22.7141 7.13718C22.8551 7.28091 23.048 7.36189 23.2494 7.36189C23.4508 7.36189 23.6437 7.28091 23.7848 7.13718L26.0667 4.81157L26.0668 4.81145C27.0974 3.76068 28.3202 2.9279 29.6651 2.36C31.0099 1.7921 32.4509 1.5 33.9057 1.5C35.3606 1.5 36.8015 1.7921 38.1464 2.36C39.4912 2.9279 40.7141 3.76068 41.7446 4.81145L41.7449 4.8117C42.776 5.862 43.5946 7.10982 44.1534 8.48422C44.7122 9.85864 45 11.3323 45 12.8208C45 14.3094 44.7122 15.783 44.1534 17.1574C43.5946 18.5318 42.776 19.7796 41.7449 20.8299L41.7447 20.8301L39.5097 23.1079L41.3476 23.3765L42.8153 21.8808L42.8154 21.8806C43.9844 20.6898 44.911 19.2767 45.5429 17.7224C46.1749 16.168 46.5 14.5025 46.5 12.8208C46.5 11.1391 46.1749 9.47361 45.5429 7.91926C44.911 6.36501 43.9845 4.95194 42.8155 3.76113C41.647 2.56969 40.2588 1.62378 38.7299 0.97815C37.2009 0.332506 35.5616 0 33.9057 0Z" fill="#181818"/>
</g>
</svg>
