<svg width="43" height="42" viewBox="0 0 43 42" fill="none" xmlns="http://www.w3.org/2000/svg">
<g clip-path="url(#clip0_114_1177)">
<path d="M29.7815 41.0599H11.3405M3.34655 37.1599H39.4305C39.961 37.1599 40.4697 36.9492 40.8448 36.5742C41.2198 36.1991 41.4305 35.6904 41.4305 35.1599V2.93994C41.4305 2.40951 41.2198 1.9008 40.8448 1.52573C40.4697 1.15066 39.961 0.939941 39.4305 0.939941H3.31055C3.04774 0.939941 2.7875 0.991739 2.54472 1.09237C2.30194 1.19301 2.08137 1.34051 1.89563 1.52643C1.70988 1.71236 1.56261 1.93308 1.46221 2.17596C1.36182 2.41884 1.31029 2.67913 1.31055 2.94194L1.34455 35.1619C1.34508 35.692 1.55603 36.2002 1.93104 36.5749C2.30606 36.9495 2.81446 37.1599 3.34455 37.1599H3.34655Z" stroke="#0C0412" stroke-width="1.5" stroke-miterlimit="10" stroke-linecap="round"/>
<path d="M15.653 16.83L11 21.52L15.653 26.24M27.357 26.24L32 21.52L27.357 16.83M24.782 16L18.218 27" stroke="#0C0412" stroke-width="1.5" stroke-miterlimit="10"/>
<path fill-rule="evenodd" clip-rule="evenodd" d="M41.4667 0.939941H1.3467H1.3457V7.43494H41.4667V0.939941ZM5.51039 5.35604C5.35417 5.41691 5.18733 5.44583 5.01974 5.44109C4.69342 5.43188 4.38356 5.29577 4.156 5.0617C3.92845 4.82763 3.80115 4.51404 3.80115 4.18759C3.80115 3.86114 3.92845 3.54756 4.156 3.31349C4.38356 3.07942 4.69342 2.94331 5.01974 2.93409C5.18733 2.92936 5.35417 2.95828 5.51039 3.01915C5.66661 3.08001 5.80904 3.17158 5.92925 3.28845C6.04947 3.40532 6.14502 3.5451 6.21028 3.69954C6.27553 3.85398 6.30915 4.01994 6.30915 4.18759C6.30915 4.35525 6.27553 4.52121 6.21028 4.67565C6.14502 4.83009 6.04947 4.96987 5.92925 5.08674C5.80904 5.2036 5.66661 5.29518 5.51039 5.35604ZM12.8204 5.35604C12.6642 5.41691 12.4973 5.44583 12.3297 5.44109C12.0034 5.43188 11.6936 5.29577 11.466 5.0617C11.2385 4.82763 11.1111 4.51404 11.1111 4.18759C11.1111 3.86114 11.2385 3.54756 11.466 3.31349C11.6936 3.07942 12.0034 2.94331 12.3297 2.93409C12.4973 2.92936 12.6642 2.95828 12.8204 3.01915C12.9766 3.08001 13.119 3.17158 13.2393 3.28845C13.3595 3.40532 13.455 3.5451 13.5203 3.69954C13.5855 3.85398 13.6191 4.01994 13.6191 4.18759C13.6191 4.35525 13.5855 4.52121 13.5203 4.67565C13.455 4.83009 13.3595 4.96987 13.2393 5.08674C13.119 5.2036 12.9766 5.29518 12.8204 5.35604ZM9.17139 5.35604C9.01517 5.41691 8.84833 5.44583 8.68074 5.44109C8.35442 5.43188 8.04456 5.29577 7.817 5.0617C7.58945 4.82763 7.46215 4.51404 7.46215 4.18759C7.46215 3.86114 7.58945 3.54756 7.817 3.31349C8.04456 3.07942 8.35442 2.94331 8.68074 2.93409C8.84833 2.92936 9.01517 2.95828 9.17139 3.01915C9.32761 3.08001 9.47004 3.17158 9.59025 3.28845C9.71047 3.40532 9.80602 3.5451 9.87127 3.69954C9.93653 3.85398 9.97015 4.01994 9.97015 4.18759C9.97015 4.35525 9.93653 4.52121 9.87127 4.67565C9.80602 4.83009 9.71047 4.96987 9.59025 5.08674C9.47004 5.2036 9.32761 5.29518 9.17139 5.35604Z" fill="#0C0412"/>
</g>
<defs>
<clipPath id="clip0_114_1177">
<rect width="43" height="42" fill="white"/>
</clipPath>
</defs>
</svg>
