<svg width="32" height="23" viewBox="0 0 32 23" fill="none" xmlns="http://www.w3.org/2000/svg">
<path fill-rule="evenodd" clip-rule="evenodd" d="M30.9579 5.40453C30.9579 5.40453 30.6542 3.26062 29.7145 2.29944C28.5246 1.05598 27.1882 1.04883 26.5808 0.973797C22.2072 0.666504 15.6255 0.666504 15.6255 0.666504C15.6255 0.666504 9.06155 0.666504 4.68442 0.984516C4.07341 1.05955 2.74062 1.0667 1.55075 2.31016C0.611012 3.25705 0.310865 5.41525 0.310865 5.41525C0.117259 7.09624 0.0134896 8.78637 0 10.4784V12.851C0.013659 14.5431 0.117427 16.2332 0.310865 17.9142C0.310865 17.9142 0.618158 20.0581 1.55075 21.0193C2.74062 22.2627 4.30567 22.2234 5.00601 22.3556C7.50723 22.595 15.6398 22.6665 15.6398 22.6665C15.6398 22.6665 22.2144 22.6665 26.5879 22.3413C27.199 22.2699 28.5317 22.2627 29.7216 21.0193C30.6614 20.0724 30.9686 17.9142 30.9686 17.9142C31.1623 16.232 31.2661 14.5407 31.2795 12.8474V10.4677C31.2613 8.77442 31.1552 7.08323 30.9615 5.40095L30.9579 5.40453Z" fill="#FF0000"/>
<path fill-rule="evenodd" clip-rule="evenodd" d="M12.3989 15.7131V6.9231L20.8459 11.336L12.3989 15.7131Z" fill="white"/>
</svg>
